<?xml version="1.0" standalone="no"?>
<!DOCTYPE svg PUBLIC "-//W3C//DTD SVG 20010904//EN"
 "http://www.w3.org/TR/2001/REC-SVG-20010904/DTD/svg10.dtd">
<svg version="1.0" xmlns="http://www.w3.org/2000/svg"
 width="80.000000pt" height="80.000000pt" viewBox="0 0 225.000000 225.000000"
 preserveAspectRatio="xMidYMid meet">

<g transform="translate(0.000000,225.000000) scale(0.100000,-0.100000)"
fill="#000000" stroke="none">
<path d="M593 1402 l-83 -3 0 -244 0 -245 40 0 40 0 0 108 0 109 30 -5 c29 -4
30 -3 30 37 0 39 -2 41 -30 41 l-30 0 0 65 0 65 50 0 50 0 0 34 c0 19 -3 36
-7 38 -5 2 -45 2 -90 0z"/>
<path d="M1003 1402 l-43 -3 0 -245 0 -244 35 0 35 0 0 157 c0 86 2 154 4 152
2 -2 14 -73 27 -156 18 -128 25 -153 39 -153 14 0 21 25 39 153 13 83 25 154
27 156 2 2 4 -66 4 -152 l0 -157 35 0 35 0 0 245 c0 271 7 246 -65 249 l-30 1
-20 -107 c-10 -60 -22 -108 -26 -108 -3 0 -14 47 -24 105 -10 58 -21 107 -24
108 -3 1 -25 1 -48 -1z"/>
<path d="M766 1383 c-3 -10 -19 -112 -36 -228 -17 -115 -32 -218 -34 -227 -3
-15 3 -18 35 -18 36 0 39 2 39 28 0 56 10 72 45 72 31 0 33 -2 39 -50 7 -49 7
-50 41 -50 19 0 35 4 35 10 0 5 -16 113 -35 240 -19 127 -35 233 -35 235 0 3
-20 5 -44 5 -34 0 -46 -4 -50 -17z m62 -225 c9 -68 8 -68 -16 -68 -22 0 -23 3
-18 40 21 141 20 140 34 28z"/>
<path d="M1296 1258 c-9 -12 -16 -33 -16 -45 0 -13 -4 -23 -10 -23 -5 0 -10
-11 -10 -25 0 -14 5 -25 10 -25 6 0 10 -43 10 -110 l0 -110 25 0 25 0 0 110
c0 91 3 110 15 110 9 0 15 9 15 25 0 16 -6 25 -15 25 -8 0 -15 9 -15 20 0 11
7 23 15 26 8 4 15 15 15 25 0 27 -45 25 -64 -3z"/>
<path d="M1390 1100 l0 -180 25 0 25 0 0 180 0 180 -25 0 -25 0 0 -180z"/>
<path d="M1480 1255 c0 -22 4 -26 23 -23 14 2 22 10 22 23 0 13 -8 21 -22 23
-19 3 -23 -1 -23 -23z"/>
<path d="M1479 1168 c-2 -13 -3 -74 -1 -135 3 -113 3 -113 28 -113 l25 0 -3
133 c-3 126 -4 132 -24 135 -16 2 -22 -3 -25 -20z"/>
<path d="M1560 1178 c0 -6 8 -35 17 -65 16 -50 16 -56 -1 -110 -10 -32 -21
-64 -23 -70 -3 -9 4 -13 21 -13 19 0 27 6 32 25 3 14 10 25 14 25 4 0 11 -11
14 -25 5 -19 13 -25 32 -25 17 0 24 4 21 13 -2 6 -13 38 -23 70 -17 54 -17 60
-1 110 22 68 21 77 -2 77 -12 0 -23 -10 -29 -27 l-9 -28 -13 28 c-13 27 -50
38 -50 15z"/>
</g>
</svg>
